<svg width="512" height="512" xmlns="http://www.w3.org/2000/svg">

 <g>
  <title>background</title>
  <rect fill="none" id="canvas_background" height="402" width="582" y="-1" x="-1"/>
 </g>
 <g>
  <title>Layer 1</title>
  <path id="svg_2" fill="#ffffff" d="m383,266.5c-2.6,0 -5.3,-1 -7.3,-3l-254,-245.5c-4.2,-4 -4.3,-10.7 -0.3,-14.9c4,-4.2 10.7,-4.3 14.9,-0.3l254,245.5c4.2,4 4.3,10.7 0.3,14.9c-2.1,2.3 -4.8,3.3 -7.6,3.3z"/>
  <path id="svg_3" fill="#ffffff" d="m129,512c-2.8,0 -5.5,-1.1 -7.6,-3.2c-4,-4.2 -3.9,-10.9 0.3,-14.9l254,-245.5c4.2,-4 10.9,-3.9 14.9,0.3c4,4.2 3.9,10.9 -0.3,14.9l-254,245.4c-2,2 -4.7,3 -7.3,3z"/>
 </g>
</svg>