<svg width="512" height="512" xmlns="http://www.w3.org/2000/svg">

 <g>
  <title>background</title>
  <rect fill="none" id="canvas_background" height="402" width="582" y="-1" x="-1"/>
 </g>
 <g>
  <title>Layer 1</title>
  <path id="svg_2" fill="#ffffff" d="m129,266.5c2.6,0 5.3,-1 7.3,-3l254,-245.5c4.2,-4 4.3,-10.7 0.3,-14.9c-4,-4.2 -10.7,-4.3 -14.9,-0.3l-254,245.5c-4.2,4 -4.3,10.7 -0.3,14.9c2.1,2.3 4.8,3.3 7.6,3.3z"/>
  <path id="svg_3" fill="#ffffff" d="m383,512c2.8,0 5.5,-1.1 7.6,-3.2c4,-4.2 3.9,-10.9 -0.3,-14.9l-254,-245.5c-4.2,-4 -10.9,-3.9 -14.9,0.3c-4,4.2 -3.9,10.9 0.3,14.9l254,245.5c2,1.9 4.7,2.9 7.3,2.9z"/>
 </g>
</svg>